.
..............................Site Info...........................

 -   http://www.scenetime.com  *_*   

SceneTime is going to Close sign up on march/1, hurry up! get in before the doors are closed.

     We care to share . Join us on  http://www.scenetime.com 

    Be the first to get new release at  http://www.scenetime.com

        Seed back for speed


...................................NFO:.................................................[IMG]http://img848.imageshack.us/img848/2206/l1214962e9e1dc2d.jpg[/IMG]


[color=blue][size=5][b]Seeking.Justice.2011.DVDRip.XVID.AC3.HQ.Hive-CM8[/b][/size][/color]


[b] Thx Hive

CM8 Doing It Right The First Time :D


Source: DVD-R NOYK
thx

Encode:
Looks like i missed that nice movie last week, bugger. Well better late than never.
DVD itself was ok, not the greatest in sharpness, not interlaced but didnt want to
be tuned up as i would want it, still made a nice rip of it, added brightness,
sharpness, rgb and denoise.
got nice
enjoy

Video: 720x400 @bitrate 1700 2pass
Audio: English AC3 5.1 @448
Sample: Yes, included
Subs: Yes, English in srt /subs[/b]
 
http://www.imdb.com/title/tt1214962/


General
Complete name                  : Seeking.Justice.2011.DVDRip.XVID.AC3.HQ.Hive-CM8.avi
Format                         : AVI
Format/Info                    : Audio Video Interleave
File size                      : 1.58 GiB
Duration                       : 1h 44mn
Overall bit rate               : 2 157 Kbps
Writing application            : Nandub v1.0rc2
Writing library                : Nandub build 1853/release

Video
ID                             : 0
Format                         : MPEG-4 Visual
Format profile                 : Advanced Simple@L5
Format settings, BVOP          : 2
Format settings, QPel          : Yes
Format settings, GMC           : No warppoints
Format settings, Matrix        : Default (H.263)
Muxing mode                    : Packed bitstream
Codec ID                       : XVID
Codec ID/Hint                  : XviD
Duration                       : 1h 44mn
Bit rate                       : 1 700 Kbps
Width                          : 720 pixels
Height                         : 400 pixels
Display aspect ratio           : 16:9
Frame rate                     : 23.976 fps
Color space                    : YUV
Chroma subsampling             : 4:2:0
Bit depth                      : 8 bits
Scan type                      : Progressive
Compression mode               : Lossy
Bits/(Pixel*Frame)             : 0.246
Stream size                    : 1.24 GiB (79%)
Writing library                : XviD 1.2.1 (UTC 2008-12-04)

Audio
ID                             : 1
Format                         : AC-3
Format/Info                    : Audio Coding 3
Mode extension                 : CM (complete main)
Codec ID                       : 2000
Duration                       : 1h 44mn
Bit rate mode                  : Constant
Bit rate                       : 448 Kbps
Channel(s)                     : 6 channels
Channel positions              : Front: L C R, Side: L R, LFE
Sampling rate                  : 48.0 KHz
Bit depth                      : 16 bits
Compression mode               : Lossy
Stream size                    : 336 MiB (21%)
Alignment                      : Split accross interleaves
Interleave, duration           : 42 ms (1.00 video frame)
Interleave, preload duration   : 500 ms


Plot:
After his wife is assaulted, a husband enlists the services of a
vigilante group to help him settle the score. Then he discovers
they want a 'favor' from him in return.


Cast:
Nicolas Cage       ...    Will Gerard
Guy Pearce         ...    Simon
January Jones      ...    Laura Gerard
Harold Perrineau   ...    Jimmy


[img]http://img10.imageshack.us/img10/4193/66837318.png[/img]
[img]http://img62.imageshack.us/img62/1316/sjsj.png[/img]
[img]http://img715.imageshack.us/img715/7302/sjsjsj.png[/img]
[img]http://img689.imageshack.us/img689/7030/ssjjsjsj.png[/img]
[img]http://img808.imageshack.us/img808/7228/ssjjsjsjsj.png[/img]
[img]http://img830.imageshack.us/img830/7615/ssjjsjsjsjsj.png[/img]
[img]http://img830.imageshack.us/img830/4815/ssjjsjsjsjsjsj.png[/img]



Greetz

ViSiON,SPK,SceneLovers,PRESTiGE,SANTi,3LT0N,YanKeeS,COPYxRIGHT,THC,T0XiC
D2U,LKRG,Feel-Free,FLAWL3SS,WBZ,BHRG,26K,NOVA,SeToNeUp,TED,MAGNET,jtr
Unevano,Rapeseed,SAFC,goldadvance,KaN1vE,Pinnz,Wayne
Mr Hive,and most P2P groups
Great Work Guys :D

LOOKING FOR ANYTHING YOU WANT TO LOOK AND SOUND BETTER

CM8@hushmail.com